# xmcd CD database file generated by Grip 3.1.4
# 
# Track frame offsets:
#       182
#       19455
#       39567
# 
# Disc length: 794 seconds
# 
# Revision: 0
# Processed by: cddbd v1.5PL3 Copyright (c) Steve Scherf et al.
# Submitted via: Grip 3.1.4
# 
DISCID=20031803
DTITLE=Phil Control - Viens
DYEAR=1997
DGENRE=Blues
TTITLE0=Viens...
TTITLE1=En ti calin
TTITLE2=En ti calin remix club
EXTD=
EXTT0=
EXTT1=
EXTT2=
PLAYORDER=
